<?xml version="1.0" standalone="no"?>
<!DOCTYPE svg PUBLIC "-//W3C//DTD SVG 20010904//EN"
 "http://www.w3.org/TR/2001/REC-SVG-20010904/DTD/svg10.dtd">
<svg version="1.0" xmlns="http://www.w3.org/2000/svg"
 width="276.000000pt" height="276.000000pt" viewBox="0 0 276.000000 276.000000"
 preserveAspectRatio="xMidYMid meet">
<metadata>
Created by potrace 1.14, written by Peter Selinger 2001-2017
</metadata>
<g transform="translate(0.000000,276.000000) scale(0.100000,-0.100000)"
fill="#000000" stroke="none">
<path d="M0 1380 l0 -1380 1380 0 1380 0 0 1380 0 1380 -1380 0 -1380 0 0
-1380z m934 123 c55 -133 102 -240 106 -238 3 2 50 112 104 244 l99 241 93 0
94 0 0 -365 0 -365 -75 0 -75 0 0 238 -1 237 -97 -238 -96 -238 -51 3 -50 3
-91 228 c-50 125 -94 230 -98 234 -3 3 -6 -100 -6 -230 l0 -237 -75 0 -75 0 0
365 0 366 97 -3 98 -3 99 -242z m966 37 l0 -89 93 -3 92 -3 3 -62 3 -63 -96 0
-95 0 0 -95 0 -95 -65 0 -65 0 0 95 0 95 -95 0 -96 0 3 63 3 62 93 3 92 3 0
89 0 90 65 0 65 0 0 -90z"/>
</g>
</svg>
